<?xml version="1.0" encoding="utf-8"?>
<!-- Generator: Adobe Illustrator 24.1.1, SVG Export Plug-In . SVG Version: 6.00 Build 0)  -->
<svg version="1.0" id="Layer_1" xmlns="http://www.w3.org/2000/svg" xmlns:xlink="http://www.w3.org/1999/xlink" x="0px" y="0px"
	 viewBox="0 0 20 20" enable-background="new 0 0 20 20" xml:space="preserve">
<path d="M4.841,7.868L4.84,8.364c0,0.198,0.16,0.36,0.359,0.36c0,0,0,0,0.001,0c0.198,0,0.359-0.161,0.359-0.359L5.56,7.72
	c0-0.095-0.038-0.187-0.105-0.255L1.213,3.224c-0.14-0.14-0.368-0.14-0.508,0c-0.14,0.14-0.14,0.368,0,0.508L4.841,7.868z"/>
<path d="M7.466,5.455C7.533,5.522,7.624,5.56,7.72,5.56c0,0,0,0,0.001,0l0.997-0.001c0.198,0,0.359-0.161,0.359-0.36
	C9.076,5,8.915,4.84,8.717,4.84c0,0,0,0-0.001,0L7.868,4.841L3.732,0.705c-0.14-0.14-0.368-0.14-0.508,0
	c-0.14,0.14-0.14,0.368,0,0.508L7.466,5.455z"/>
<path d="M16.122,1.318c0.095,0,0.187-0.038,0.254-0.105c0.067-0.067,0.105-0.16,0.105-0.254s-0.038-0.187-0.105-0.254
	c-0.067-0.067-0.16-0.105-0.254-0.105c-0.095,0-0.187,0.038-0.254,0.105s-0.105,0.16-0.105,0.254s0.038,0.187,0.105,0.254
	C15.934,1.28,16.027,1.318,16.122,1.318z"/>
<path d="M8.39,6.206c-0.14,0.14-0.14,0.368,0,0.508c0.07,0.07,0.162,0.105,0.254,0.105s0.184-0.035,0.254-0.105l0.323-0.323
	c0.537-0.537,1.25-0.832,2.009-0.832c0.001,0,0.003,0,0.004,0l0.644,0.001c0,0,0,0,0.001,0c0.095,0,0.187-0.038,0.254-0.105
	l3.189-3.189c0.14-0.14,0.14-0.368,0-0.508c-0.14-0.14-0.368-0.14-0.508,0l-3.084,3.084L11.236,4.84c-0.002,0-0.003,0-0.005,0
	c-0.951,0-1.845,0.37-2.517,1.043L8.39,6.206z"/>
<path d="M14.039,7.72l0.001,0.997c0,0.198,0.161,0.359,0.359,0.359c0,0,0,0,0.001,0c0.198,0,0.359-0.161,0.359-0.36l-0.001-0.848
	l4.136-4.136c0.14-0.14,0.14-0.368,0-0.508c-0.14-0.14-0.368-0.14-0.508,0l-4.242,4.242C14.077,7.533,14.039,7.625,14.039,7.72z"/>
<path d="M18.895,15.867l-4.136-4.136l0.001-0.495c0.001-0.472-0.091-0.933-0.272-1.369c-0.076-0.183-0.286-0.27-0.47-0.194
	c-0.183,0.076-0.27,0.286-0.194,0.47c0.144,0.348,0.217,0.716,0.217,1.092l-0.001,0.644c0,0.095,0.038,0.187,0.105,0.255
	l4.242,4.242c0.07,0.07,0.162,0.105,0.254,0.105s0.184-0.035,0.254-0.105C19.035,16.235,19.035,16.008,18.895,15.867z"/>
<path d="M12.134,14.145c-0.067-0.067-0.159-0.105-0.254-0.105c0,0,0,0-0.001,0l-0.997,0.001c-0.198,0-0.359,0.161-0.359,0.36
	c0,0.198,0.161,0.359,0.359,0.359c0,0,0,0,0.001,0l0.848-0.001l4.136,4.136C15.938,18.965,16.03,19,16.122,19
	s0.184-0.035,0.254-0.105c0.14-0.14,0.14-0.368,0-0.508L12.134,14.145z"/>
<path d="M3.478,18.281c-0.095,0-0.187,0.038-0.254,0.105c-0.067,0.067-0.105,0.16-0.105,0.254c0,0.095,0.038,0.187,0.105,0.254
	C3.29,18.961,3.383,19,3.478,19s0.187-0.038,0.254-0.105c0.067-0.067,0.105-0.16,0.105-0.254c0-0.095-0.038-0.187-0.105-0.254
	C3.665,18.32,3.572,18.281,3.478,18.281z"/>
<path d="M13.452,11.15c0.395-0.395,0.395-1.037,0-1.432c-0.082-0.082-0.174-0.146-0.272-0.194c0.084-0.15,0.129-0.319,0.129-0.495
	c0-0.27-0.105-0.525-0.297-0.716c-0.087-0.086-0.185-0.154-0.29-0.203c0.181-0.377,0.116-0.844-0.196-1.156
	c-0.312-0.312-0.778-0.377-1.155-0.196c-0.049-0.106-0.118-0.204-0.203-0.29c-0.395-0.395-1.037-0.395-1.432,0L8.302,7.904
	C8.275,7.613,8.124,7.337,7.869,7.158C7.641,6.998,7.365,6.939,7.092,6.99S6.582,7.196,6.427,7.427L5.443,8.895
	c-0.396,0.59-0.604,1.277-0.603,1.988l0.001,0.848l-4.136,4.137c-0.14,0.14-0.14,0.368,0,0.508c0.07,0.07,0.162,0.105,0.254,0.105
	s0.184-0.035,0.254-0.105l4.242-4.242c0.067-0.068,0.105-0.159,0.105-0.255l-0.001-0.997C5.558,10.315,5.724,9.767,6.04,9.296
	l0.984-1.468c0.047-0.069,0.117-0.116,0.199-0.131c0.082-0.015,0.165,0.003,0.233,0.05C7.59,7.84,7.628,8.021,7.544,8.159
	L7.159,8.793c-0.121,0.2-0.076,0.45,0.108,0.595c0.184,0.144,0.438,0.129,0.603-0.036l2.374-2.374c0.115-0.115,0.301-0.115,0.415,0
	c0.055,0.055,0.086,0.129,0.086,0.208c0,0.067-0.022,0.13-0.063,0.181L9.279,8.775c-0.14,0.14-0.14,0.368,0,0.508
	c0.14,0.14,0.368,0.14,0.508,0l1.816-1.82c0.115-0.115,0.301-0.115,0.415,0c0.115,0.115,0.115,0.301,0,0.415l-1.818,1.818
	c-0.14,0.14-0.14,0.368,0,0.508c0.07,0.07,0.162,0.105,0.254,0.105c0.092,0,0.184-0.035,0.254-0.105l1.407-1.407
	c0.115-0.09,0.283-0.083,0.389,0.023c0.055,0.055,0.086,0.129,0.086,0.208c0,0.078-0.031,0.152-0.086,0.208l-1.382,1.382
	c-0.14,0.14-0.14,0.368,0,0.508c0.07,0.07,0.162,0.105,0.254,0.105s0.184-0.035,0.254-0.105l0.924-0.924
	c0.115-0.091,0.283-0.083,0.389,0.023c0.055,0.055,0.086,0.129,0.086,0.208c0,0.078-0.031,0.152-0.086,0.208l-2.566,2.566
	c-0.537,0.537-1.25,0.832-2.009,0.832c-0.001,0-0.003,0-0.004,0L7.72,14.039c0,0,0,0-0.001,0c-0.095,0-0.187,0.038-0.254,0.105
	l-3.339,3.339c-0.14,0.14-0.14,0.368,0,0.508c0.07,0.07,0.162,0.105,0.254,0.105s0.184-0.035,0.254-0.105l3.234-3.234l0.495,0.001
	c0.002,0,0.003,0,0.005,0c0.951,0,1.845-0.37,2.517-1.043L13.452,11.15z"/>
</svg>
