<?xml version="1.0" encoding="utf-8"?>
<!-- Generator: Adobe Illustrator 24.1.1, SVG Export Plug-In . SVG Version: 6.00 Build 0)  -->
<svg version="1.0" id="Layer_1" xmlns="http://www.w3.org/2000/svg" xmlns:xlink="http://www.w3.org/1999/xlink" x="0px" y="0px"
	 viewBox="0 0 20 20" enable-background="new 0 0 20 20" xml:space="preserve">
<path d="M16.646,12.904c0.42-0.335,0.743-0.784,0.926-1.3h0.169c0.712,0,1.29-0.579,1.29-1.29c0-0.476-0.261-0.887-0.645-1.111
	v-1.47c0-1.423-1.158-2.581-2.581-2.581h-1.935c-1.423,0-2.581,1.158-2.581,2.581v1.47c-0.384,0.224-0.645,0.635-0.645,1.111
	c0,0.712,0.579,1.29,1.29,1.29h0.169c0.183,0.516,0.507,0.965,0.926,1.3c-1.348,0.074-2.497,0.901-3.031,2.069
	c-0.535-1.168-1.683-1.995-3.031-2.069c0.42-0.335,0.743-0.784,0.926-1.3h0.169c0.712,0,1.29-0.579,1.29-1.29
	c0-0.476-0.261-0.887-0.645-1.111v-1.47c0-1.423-1.158-2.581-2.581-2.581H4.194c-1.423,0-2.581,1.158-2.581,2.581v1.47
	c-0.384,0.224-0.645,0.635-0.645,1.111c0,0.712,0.579,1.29,1.29,1.29h0.169c0.183,0.516,0.507,0.965,0.926,1.3
	C1.488,13.006,0,14.551,0,16.442v3.226c0,0.178,0.144,0.323,0.323,0.323h19.355c0.178,0,0.323-0.144,0.323-0.323v-3.226
	C20,14.551,18.512,13.006,16.646,12.904L16.646,12.904z M13.393,13.539l1.013,1.266l-0.982,0.982l-0.447-2.236
	c0.082-0.007,0.165-0.012,0.249-0.012H13.393z M15.458,13.539l-0.619,0.774l-0.619-0.774H15.458z M16.284,13.539h0.167
	c0.084,0,0.167,0.006,0.249,0.013l-0.448,2.236l-0.982-0.982L16.284,13.539z M17.742,10.958h-0.019
	c0.012-0.106,0.019-0.214,0.019-0.323V9.668c0.356,0,0.645,0.289,0.645,0.645C18.387,10.669,18.098,10.958,17.742,10.958
	L17.742,10.958z M11.935,7.732c0-1.067,0.868-1.935,1.935-1.935h1.935c1.067,0,1.935,0.868,1.935,1.935v1.29h-1.29
	c-0.356,0-0.645-0.289-0.645-0.645v-1.29h-0.645V7.41c0,0.889-0.724,1.613-1.613,1.613h-1.613V7.732z M11.935,10.958
	c-0.356,0-0.645-0.289-0.645-0.645c0-0.356,0.289-0.645,0.645-0.645v0.968c0,0.109,0.007,0.216,0.019,0.323H11.935z M12.581,10.636
	V9.668h0.968c0.685,0,1.299-0.308,1.714-0.792c0.195,0.465,0.655,0.792,1.19,0.792h0.645v0.968c0,1.245-1.013,2.258-2.258,2.258
	C13.594,12.894,12.581,11.881,12.581,10.636L12.581,10.636z M3.716,13.539l1.013,1.266l-0.982,0.982l-0.447-2.236
	c0.082-0.007,0.165-0.012,0.249-0.012H3.716z M5.78,13.539l-0.619,0.774l-0.619-0.774H5.78z M6.607,13.539h0.167
	c0.084,0,0.167,0.006,0.249,0.013l-0.447,2.236l-0.982-0.982L6.607,13.539z M8.065,10.958H8.045
	c0.012-0.106,0.019-0.214,0.019-0.323V9.668c0.356,0,0.645,0.289,0.645,0.645C8.71,10.669,8.42,10.958,8.065,10.958L8.065,10.958z
	 M2.258,7.732c0-1.067,0.868-1.935,1.935-1.935h1.935c1.067,0,1.935,0.868,1.935,1.935v1.29h-1.29c-0.356,0-0.645-0.289-0.645-0.645
	v-1.29H5.484V7.41c0,0.889-0.724,1.613-1.613,1.613H2.258V7.732z M2.258,10.958c-0.356,0-0.645-0.289-0.645-0.645
	c0-0.356,0.289-0.645,0.645-0.645v0.968c0,0.109,0.007,0.216,0.019,0.323H2.258z M2.903,10.636V9.668h0.968
	c0.685,0,1.299-0.308,1.714-0.792c0.195,0.465,0.655,0.792,1.19,0.792h0.645v0.968c0,1.245-1.013,2.258-2.258,2.258
	S2.903,11.881,2.903,10.636L2.903,10.636z M0.645,16.442c0-1.294,0.85-2.391,2.021-2.765l0.566,2.829
	c0.023,0.117,0.109,0.211,0.223,0.246c0.031,0.009,0.062,0.014,0.094,0.014c0.085,0,0.167-0.033,0.228-0.095l1.385-1.385
	l1.385,1.385c0.061,0.061,0.143,0.095,0.228,0.095c0.031,0,0.063-0.005,0.094-0.014c0.114-0.034,0.199-0.129,0.223-0.246
	l0.566-2.829c1.171,0.375,2.021,1.472,2.021,2.766v2.903h-1.29v-2.581H7.742v2.581H2.581v-2.581H1.935v2.581h-1.29V16.442z
	 M19.355,19.345h-1.29v-2.581h-0.645v2.581h-5.161v-2.581h-0.645v2.581h-1.29v-2.903c0-1.294,0.85-2.391,2.021-2.765l0.566,2.829
	c0.023,0.117,0.109,0.211,0.223,0.246c0.031,0.009,0.062,0.014,0.094,0.014c0.085,0,0.167-0.033,0.228-0.095l1.385-1.385
	l1.385,1.385c0.061,0.061,0.143,0.095,0.228,0.095c0.031,0,0.063-0.005,0.094-0.014c0.114-0.034,0.199-0.129,0.223-0.246
	l0.566-2.829c1.171,0.375,2.021,1.472,2.021,2.766V19.345z M19.355,19.345"/>
<path d="M5.161,1.926h9.677V1.281H5.94l0.74-0.74L6.224,0.085l-1.29,1.29c-0.092,0.092-0.12,0.231-0.07,0.352
	C4.913,1.847,5.031,1.926,5.161,1.926L5.161,1.926z M5.161,1.926"/>
<path d="M5.161,2.571v0.645h8.899l-0.74,0.74l0.456,0.456l1.29-1.29c0.092-0.092,0.12-0.231,0.07-0.352
	c-0.05-0.12-0.168-0.199-0.298-0.199H5.161z M5.161,2.571"/>
</svg>
