<?xml version="1.0" encoding="utf-8"?>
<!-- Generator: Adobe Illustrator 24.1.1, SVG Export Plug-In . SVG Version: 6.00 Build 0)  -->
<svg version="1.0" id="Layer_1" xmlns="http://www.w3.org/2000/svg" xmlns:xlink="http://www.w3.org/1999/xlink" x="0px" y="0px"
	 viewBox="0 0 20 20" enable-background="new 0 0 20 20" xml:space="preserve">
<path d="M20,5.923V0.805h-5.491c-0.125-0.371-0.472-0.64-0.884-0.64h-0.093c-0.486,0-0.896,0.38-0.933,0.864l-0.508,6.596
	l-1.666-1.11c-0.322-0.215-0.675-0.372-1.045-0.47c0.619-0.467,1.021-1.207,1.021-2.04c0-1.411-1.148-2.559-2.559-2.559
	S5.284,2.593,5.284,4.004c0,0.75,0.327,1.425,0.843,1.893C5.729,5.843,5.345,5.708,5,5.496L1.792,3.522
	c-0.168-0.104-0.362-0.158-0.56-0.158c-0.589,0-1.068,0.479-1.068,1.068v0.125c0,0.364,0.182,0.699,0.488,0.897l4.22,2.731
	C5.33,8.48,5.604,8.982,5.604,9.527v5.062c-2.191,1.014-3.986,2.75-5.067,4.912L0.287,20h19.591l-0.249-0.499
	c-1.243-2.486-3.447-4.409-6.071-5.315l0.211-2.74l0.125,0.077c0.168,0.104,0.362,0.158,0.56,0.158c0.589,0,1.068-0.479,1.068-1.068
	v-0.131c0-0.358-0.178-0.69-0.475-0.889l-1.08-0.719l0.227-2.951H20z M19.36,5.284h-5.118l0.295-3.839h4.823V5.284z M13.237,1.078
	c0.012-0.153,0.142-0.273,0.296-0.273h0.093c0.163,0,0.296,0.133,0.295,0.319l-1.234,16.044c-0.012,0.153-0.142,0.273-0.296,0.273
	h-0.093c-0.164,0-0.296-0.133-0.295-0.319L13.237,1.078z M11.623,13.716c-0.509-0.074-1.026-0.112-1.541-0.112l0-4.426l1.804,1.111
	L11.623,13.716z M8.153,8.72L7.843,9.186L7.532,8.72l0.202-2.156h0.217L8.153,8.72z M5.923,4.004c0-1.059,0.861-1.92,1.92-1.92
	c1.059,0,1.92,0.861,1.92,1.92s-0.861,1.92-1.92,1.92C6.784,5.923,5.923,5.063,5.923,4.004L5.923,4.004z M5.22,7.647L1,4.917
	c-0.122-0.08-0.196-0.214-0.196-0.36V4.432c0-0.236,0.192-0.428,0.428-0.428c0.079,0,0.157,0.022,0.224,0.063l3.208,1.974
	C5.22,6.383,5.858,6.563,6.509,6.563h0.583L6.874,8.886l0.969,1.453l0.969-1.453L8.595,6.572c0.527,0.022,1.036,0.181,1.476,0.475
	l1.964,1.309l-0.093,1.215l-1.769-1.089h-0.73l-0.001,8.972c0,0.345-0.281,0.625-0.654,0.625c-0.345,0-0.625-0.281-0.625-0.625
	v-5.773h-0.64v5.773c0,0.345-0.281,0.625-0.654,0.625c-0.345,0-0.625-0.281-0.625-0.625V9.527C6.243,8.764,5.861,8.061,5.22,7.647
	L5.22,7.647z M3.766,16.49c0.152,0.173,0.238,0.397,0.238,0.63c0,0.529-0.431,0.96-0.96,0.96c-0.241,0-0.468-0.091-0.643-0.248
	C2.813,17.342,3.269,16.893,3.766,16.49L3.766,16.49z M17.879,17.969c-0.135,0.07-0.283,0.112-0.439,0.112
	c-0.529,0-0.96-0.431-0.96-0.96c0-0.164,0.046-0.32,0.124-0.46C17.068,17.057,17.495,17.495,17.879,17.969L17.879,17.969z
	 M16.101,16.255c-0.167,0.256-0.26,0.553-0.26,0.866c0,0.882,0.718,1.6,1.6,1.6c0.297,0,0.582-0.085,0.83-0.238
	c0.2,0.282,0.388,0.574,0.559,0.877H1.335c0.201-0.357,0.43-0.696,0.671-1.024c0.286,0.244,0.652,0.384,1.037,0.384
	c0.882,0,1.6-0.718,1.6-1.6c0-0.375-0.135-0.733-0.369-1.016c0.421-0.3,0.864-0.567,1.329-0.799v2.149
	c0,0.698,0.568,1.265,1.294,1.265c0.378,0,0.715-0.17,0.947-0.434c0.235,0.264,0.578,0.435,0.972,0.435
	c0.698,0,1.265-0.568,1.265-1.265l0-3.21c0.498,0,0.999,0.038,1.492,0.111l-0.209,2.716c-0.002,0.024-0.003,0.048-0.003,0.072
	c0,0.516,0.42,0.936,0.936,0.936h0.093c0.486,0,0.896-0.38,0.933-0.864l0.182-2.371C14.44,15.185,15.314,15.663,16.101,16.255
	L16.101,16.255z M14.691,10.127c0.119,0.08,0.191,0.213,0.191,0.356v0.131c0,0.236-0.192,0.428-0.428,0.428
	c-0.079,0-0.157-0.022-0.224-0.063l-0.405-0.249l0.086-1.123L14.691,10.127z M14.691,10.127"/>
<rect x="18.08" y="2.084" width="0.64" height="0.64"/>
<rect x="16.801" y="2.084" width="0.64" height="0.64"/>
<rect x="15.521" y="2.084" width="0.64" height="0.64"/>
<rect x="14.561" y="16.481" width="0.64" height="0.64"/>
<rect x="13.602" y="18.08" width="0.64" height="0.64"/>
</svg>
