<?xml version="1.0" encoding="utf-8"?>
<!-- Generator: Adobe Illustrator 24.1.1, SVG Export Plug-In . SVG Version: 6.00 Build 0)  -->
<svg version="1.0" id="Layer_1" xmlns="http://www.w3.org/2000/svg" xmlns:xlink="http://www.w3.org/1999/xlink" x="0px" y="0px"
	 viewBox="0 0 20 20" enable-background="new 0 0 20 20" xml:space="preserve">
<path d="M1.343,13.947l0.167-0.645c-0.442-0.114-0.75-0.512-0.75-0.969V1.667c0-0.552,0.448-1,1-1h13.333c0.552,0,1,0.448,1,1V2
	h0.667V1.667C16.758,0.747,16.013,0.001,15.093,0H1.759c-0.92,0.001-1.666,0.747-1.667,1.667v10.667
	C0.093,13.094,0.607,13.757,1.343,13.947z"/>
<rect x="1.426" y="1.333" width="0.667" height="0.667"/>
<rect x="2.759" y="1.333" width="0.667" height="0.667"/>
<rect x="4.093" y="1.333" width="0.667" height="0.667"/>
<path d="M16.896,14.333h0.53v-0.667h-0.387c0.126-0.807,0.029-1.633-0.28-2.389V8h-0.667v2.123
	c-0.198-0.253-0.421-0.485-0.667-0.692V6.667h-0.667v2.298c-0.213-0.124-0.436-0.23-0.667-0.318V5.333h-0.667v3.111
	c-0.22-0.047-0.442-0.079-0.667-0.094V6h-0.667v2.35c-0.224,0.015-0.447,0.046-0.667,0.094V7.333h-0.667v1.313
	c-0.23,0.088-0.453,0.195-0.667,0.318V7H9.426v2.431C9.181,9.638,8.957,9.87,8.759,10.123V7.667H8.093v3.611
	c-0.309,0.756-0.406,1.582-0.28,2.389H3.426v0.667h4.53c0.731,2.466,3.323,3.872,5.789,3.141c0.486-0.144,0.945-0.366,1.359-0.659
	l3.086,3.086c0.13,0.13,0.341,0.13,0.471,0l1-1c0.13-0.13,0.13-0.341,0-0.471L16.5,15.269
	C16.666,14.973,16.799,14.659,16.896,14.333z M8.426,13c0-2.209,1.791-4,4-4s4,1.791,4,4s-1.791,4-4,4
	C10.218,16.998,8.428,15.208,8.426,13z M18.955,18.667l-0.529,0.529l-2.804-2.804c0.182-0.172,0.349-0.357,0.502-0.556
	L18.955,18.667z"/>
<path d="M12.426,9.667c-1.841,0-3.333,1.492-3.333,3.333s1.492,3.333,3.333,3.333s3.333-1.492,3.333-3.333
	C15.757,11.16,14.266,9.669,12.426,9.667z M10.759,10.922V13h0.667v-2.47c0.214-0.086,0.438-0.145,0.667-0.173V13h0.667v-2.644
	c0.229,0.029,0.453,0.087,0.667,0.173V13h0.667v-2.078c0.822,0.653,1.181,1.73,0.912,2.745H9.847
	C9.579,12.652,9.937,11.574,10.759,10.922z M12.426,15.667c-0.951-0.001-1.83-0.509-2.306-1.333h4.612
	C14.256,15.157,13.377,15.666,12.426,15.667z"/>
<path d="M2.093,4.333V15c0.001,0.92,0.747,1.666,1.667,1.667h4.333V16H3.759c-0.552,0-1-0.448-1-1V4.333c0-0.552,0.448-1,1-1h13.333
	c0.552,0,1,0.448,1,1V15c0,0.244-0.089,0.479-0.25,0.661l0.5,0.441c0.269-0.304,0.417-0.696,0.417-1.102V4.333
	c-0.001-0.92-0.747-1.666-1.667-1.667H3.759C2.839,2.668,2.094,3.413,2.093,4.333z"/>
<rect x="3.426" y="4" width="0.667" height="0.667"/>
<rect x="4.759" y="4" width="0.667" height="0.667"/>
<rect x="6.093" y="4" width="0.667" height="0.667"/>
<rect x="4.093" y="11" width="0.667" height="2"/>
<rect x="5.426" y="9" width="0.667" height="4"/>
<rect x="6.759" y="10" width="0.667" height="3"/>
</svg>
