<?xml version="1.0" encoding="utf-8"?>
<!-- Generator: Adobe Illustrator 24.1.1, SVG Export Plug-In . SVG Version: 6.00 Build 0)  -->
<svg version="1.0" id="Layer_1" xmlns="http://www.w3.org/2000/svg" xmlns:xlink="http://www.w3.org/1999/xlink" x="0px" y="0px"
	 viewBox="0 0 20 20" enable-background="new 0 0 20 20" xml:space="preserve">
<path d="M12.075,6.2c-0.176-0.125-0.42-0.083-0.545,0.092l-0.008,0.011c-0.125,0.176-0.083,0.42,0.093,0.545
	c0.069,0.049,0.148,0.072,0.226,0.072c0.122,0,0.243-0.057,0.319-0.165l0.008-0.011C12.293,6.569,12.251,6.325,12.075,6.2z"/>
<path d="M10.636,7.253c-0.543,0.445-1.159,0.762-1.833,0.942C8.594,8.251,8.47,8.465,8.526,8.673c0.047,0.175,0.205,0.29,0.377,0.29
	c0.033,0,0.067-0.004,0.101-0.013c0.782-0.209,1.497-0.576,2.127-1.093c0.167-0.137,0.191-0.383,0.054-0.55
	C11.049,7.141,10.802,7.116,10.636,7.253z"/>
<path d="M18.828,8.846c-0.646,0-1.172,0.526-1.172,1.172v0.195c0,1.638-1.193,3.002-2.755,3.271
	c0.204-0.301,0.323-0.664,0.323-1.054v-0.271c0-1.038-0.845-1.883-1.883-1.883s-1.883,0.845-1.883,1.883v0.271
	c0,0.38,0.114,0.734,0.308,1.031c-1.501-0.318-2.631-1.653-2.631-3.248v-0.195c0-0.646-0.526-1.172-1.172-1.172
	s-1.172,0.526-1.172,1.172v0.195c0,0.793,0.161,1.56,0.473,2.268H4.678H4.607V8.548c0-0.174-0.116-0.328-0.283-0.376
	C2.238,7.576,0.781,5.645,0.781,3.477V3.281c0-0.215,0.175-0.391,0.391-0.391s0.391,0.175,0.391,0.391v0.195
	c0,2.262,1.84,4.102,4.102,4.102h1.88c2.262,0,4.102-1.84,4.102-4.102V3.281c0-0.215,0.175-0.391,0.391-0.391
	c0.215,0,0.391,0.175,0.391,0.391v0.195c0,0.6-0.108,1.187-0.322,1.743c-0.077,0.201,0.023,0.427,0.225,0.505
	c0.201,0.077,0.427-0.023,0.505-0.225c0.248-0.646,0.373-1.326,0.373-2.023V3.281c0-0.646-0.526-1.172-1.172-1.172
	s-1.172,0.526-1.172,1.172v0.195c0,1.638-1.193,3.002-2.755,3.271c0.204-0.301,0.323-0.664,0.323-1.054V5.422
	c0-1.038-0.845-1.883-1.883-1.883S4.667,4.384,4.667,5.422v0.271c0,0.38,0.114,0.734,0.308,1.031
	C3.474,6.406,2.344,5.071,2.344,3.477V3.281c0-0.646-0.526-1.172-1.172-1.172S0,2.635,0,3.281v0.195C0,4.731,0.403,5.92,1.166,6.915
	C1.843,7.8,2.78,8.473,3.825,8.834v4.038c0,0.216,0.175,0.391,0.391,0.391h0.071v6.346C4.287,19.825,4.462,20,4.678,20
	c0.216,0,0.391-0.175,0.391-0.391v-6.346h2.616c0.085,0.133,0.177,0.263,0.274,0.39c0.026,0.034,0.053,0.067,0.079,0.1v5.857
	C8.037,19.825,8.212,20,8.428,20s0.391-0.175,0.391-0.391V14.55c0.532,0.446,1.144,0.795,1.799,1.021v4.038
	c0,0.216,0.175,0.391,0.391,0.391c0.216,0,0.391-0.175,0.391-0.391v-4.325c0-0.174-0.116-0.328-0.283-0.376
	c-2.086-0.596-3.542-2.527-3.542-4.696v-0.195c0-0.215,0.175-0.391,0.391-0.391s0.391,0.175,0.391,0.391v0.195
	c0,2.262,1.84,4.102,4.102,4.102h1.88c2.262,0,4.102-1.84,4.102-4.102v-0.195c0-0.215,0.175-0.391,0.391-0.391
	s0.391,0.175,0.391,0.391v0.195c0,2.208-1.49,4.149-3.624,4.718c-0.171,0.046-0.29,0.2-0.29,0.377v2.829
	c0,0.216,0.175,0.391,0.391,0.391c0.216,0,0.391-0.175,0.391-0.391v-2.537C18.405,14.848,20,12.674,20,10.214v-0.195
	C20,9.372,19.474,8.846,18.828,8.846z M5.448,5.422c0-0.608,0.494-1.102,1.102-1.102s1.102,0.494,1.102,1.102v0.271
	c0,0.608-0.494,1.102-1.102,1.102c-0.608,0-1.102-0.494-1.102-1.102V5.422z M12.24,12.159c0-0.608,0.494-1.102,1.102-1.102
	s1.102,0.494,1.102,1.102v0.271c0,0.608-0.494,1.102-1.102,1.102c-0.608,0-1.102-0.494-1.102-1.102V12.159z"/>
<path d="M6.549,14.609c-0.216,0-0.391,0.175-0.391,0.391v4.609C6.159,19.825,6.334,20,6.549,20c0.216,0,0.391-0.175,0.391-0.391V15
	C6.94,14.784,6.765,14.609,6.549,14.609z"/>
<path d="M18.203,4.47c0.216,0,0.391-0.175,0.391-0.391V3.594c0-0.216-0.175-0.391-0.391-0.391s-0.391,0.175-0.391,0.391v0.486
	C17.813,4.295,17.987,4.47,18.203,4.47z"/>
<path d="M18.203,6.797c0.216,0,0.391-0.175,0.391-0.391V5.921c0-0.216-0.175-0.391-0.391-0.391s-0.391,0.175-0.391,0.391v0.486
	C17.813,6.622,17.987,6.797,18.203,6.797z"/>
<path d="M19.124,5.391h0.486C19.825,5.391,20,5.216,20,5s-0.175-0.391-0.391-0.391h-0.486c-0.216,0-0.391,0.175-0.391,0.391
	S18.908,5.391,19.124,5.391z"/>
<path d="M16.797,5.391h0.486c0.216,0,0.391-0.175,0.391-0.391s-0.175-0.391-0.391-0.391h-0.486c-0.216,0-0.391,0.175-0.391,0.391
	S16.581,5.391,16.797,5.391z"/>
<path d="M8.589,1.267c0.216,0,0.391-0.175,0.391-0.391V0.391C8.979,0.175,8.805,0,8.589,0S8.198,0.175,8.198,0.391v0.486
	C8.198,1.092,8.373,1.267,8.589,1.267z"/>
<path d="M8.589,3.594c0.216,0,0.391-0.175,0.391-0.391V2.718c0-0.216-0.175-0.391-0.391-0.391S8.198,2.502,8.198,2.718v0.486
	C8.198,3.419,8.373,3.594,8.589,3.594z"/>
<path d="M9.509,2.188h0.486c0.216,0,0.391-0.175,0.391-0.391s-0.175-0.391-0.391-0.391H9.509c-0.216,0-0.391,0.175-0.391,0.391
	S9.294,2.188,9.509,2.188z"/>
<path d="M7.183,2.188h0.486c0.216,0,0.391-0.175,0.391-0.391S7.884,1.406,7.668,1.406H7.183c-0.216,0-0.391,0.175-0.391,0.391
	S6.967,2.188,7.183,2.188z"/>
</svg>
