<?xml version="1.0" encoding="utf-8"?>
<!-- Generator: Adobe Illustrator 24.1.1, SVG Export Plug-In . SVG Version: 6.00 Build 0)  -->
<svg version="1.0" id="Layer_1" xmlns="http://www.w3.org/2000/svg" xmlns:xlink="http://www.w3.org/1999/xlink" x="0px" y="0px"
	 viewBox="0 0 20 20" enable-background="new 0 0 20 20" xml:space="preserve">
<path d="M18.529,6.324h-0.013c-0.002-0.803-0.453-0.931-1.136-1.124l-0.014-0.004c-0.218-0.062-0.437-0.115-0.663-0.159
	c0.003-0.055,0.005-0.112,0.005-0.17c-0.001-0.774-0.264-1.442-0.761-1.931c-0.518-0.51-1.271-0.795-2.07-0.785
	c-0.797-0.012-1.551,0.275-2.069,0.785c-0.497,0.489-0.76,1.157-0.761,1.931c0,0.096,0.004,0.188,0.013,0.277
	c-0.43,0.098-0.786,0.215-1.06,0.35C9.304,5.151,8.105,4.926,6.512,4.839C6.35,4.83,6.21,4.955,6.201,5.117
	C6.192,5.28,6.317,5.419,6.48,5.428c1.893,0.103,2.805,0.381,3.225,0.578v10.931c-0.79-0.303-2.022-0.515-3.323-0.56
	c-0.981-0.034-2.773,0.004-4.308,0.58V6.33c0-0.266,0.057-0.311,0.09-0.337c0.098-0.078,0.315-0.139,0.614-0.224l0.015-0.004
	C3.444,5.579,4.1,5.483,5.059,5.431C5.222,5.422,5.347,5.283,5.338,5.12C5.329,4.957,5.189,4.832,5.027,4.841
	c-1.006,0.055-1.7,0.158-2.395,0.355L2.617,5.2C1.936,5.394,1.485,5.522,1.483,6.324H1.47c-0.81,0-1.47,0.66-1.47,1.47V18.07
	c0,0.938,0.675,1.888,1.965,1.89l8.034,0.01H10l3.234-0.003c0.163,0,0.295-0.132,0.295-0.296c0-0.163-0.132-0.295-0.295-0.295
	c0,0,0,0,0,0l-2.938,0.003v-0.9h7.318c0.499,0,0.904-0.412,0.904-0.919V6.915h0.013c0.486,0,0.881,0.395,0.881,0.88V18.07
	c0,0.625-0.431,1.298-1.376,1.299l-3.433,0.004c-0.163,0-0.295,0.133-0.295,0.296c0,0.163,0.132,0.295,0.295,0.295h0l3.433-0.004
	C19.325,19.959,20,19.008,20,18.07V7.795C20,6.984,19.34,6.324,18.529,6.324L18.529,6.324z M12.222,3.357
	c0.407-0.401,1.01-0.626,1.651-0.616h0.009c0.641-0.011,1.244,0.215,1.652,0.616c0.382,0.376,0.584,0.898,0.585,1.51
	c0.001,0.767-0.335,1.172-0.724,1.641c-0.339,0.409-0.719,0.866-0.802,1.581h-0.419V6.044h0.463c0.163,0,0.295-0.132,0.295-0.295
	c0-0.163-0.132-0.295-0.295-0.295h-1.547c-0.163,0-0.295,0.132-0.295,0.295c0,0.163,0.132,0.295,0.295,0.295h0.493v2.045h-0.418
	c-0.083-0.715-0.463-1.172-0.802-1.581c-0.389-0.469-0.725-0.874-0.724-1.641C11.638,4.254,11.841,3.732,12.222,3.357L12.222,3.357z
	 M12.956,8.68h1.843c0.237,0,0.43,0.193,0.43,0.43c0,0.236-0.193,0.428-0.43,0.428h-1.843c-0.237,0-0.43-0.192-0.43-0.428
	C12.526,8.873,12.719,8.68,12.956,8.68L12.956,8.68z M11.908,6.886c0.324,0.391,0.609,0.734,0.67,1.277
	c-0.376,0.151-0.642,0.518-0.642,0.947c0,0.562,0.458,1.019,1.02,1.019h1.843c0.563,0,1.02-0.457,1.02-1.019
	c0-0.429-0.266-0.796-0.642-0.947c0.061-0.543,0.346-0.887,0.67-1.277c0.287-0.345,0.601-0.724,0.758-1.266
	c0.204,0.041,0.402,0.088,0.599,0.144l0.014,0.004c0.3,0.085,0.517,0.147,0.616,0.224c0.034,0.027,0.09,0.071,0.09,0.337v10.627
	c-1.535-0.576-3.327-0.614-4.308-0.58c-1.301,0.045-2.533,0.257-3.323,0.56V6.006c0.185-0.087,0.466-0.189,0.887-0.286
	C11.347,6.209,11.639,6.562,11.908,6.886L11.908,6.886z M9.704,17.578v0.311H2.386c-0.162,0-0.296-0.131-0.311-0.298
	C4.518,16.57,8.393,16.958,9.704,17.578L9.704,17.578z M0.59,18.07V7.795c0-0.485,0.395-0.88,0.879-0.88h0.014V17.56
	c0,0.507,0.405,0.919,0.903,0.919h7.318v0.9l-7.738-0.01C1.021,19.369,0.59,18.695,0.59,18.07L0.59,18.07z M17.612,17.889h-7.318
	v-0.311c1.312-0.619,5.187-1.008,7.63,0.013C17.909,17.755,17.773,17.889,17.612,17.889L17.612,17.889z M17.612,17.889"/>
<path d="M8.564,12.075c-0.464-0.269-1.383-0.458-2.399-0.493c-0.678-0.023-1.968,0.008-2.996,0.48
	c-0.148,0.068-0.213,0.243-0.145,0.392c0.05,0.108,0.157,0.172,0.268,0.172c0.041,0,0.083-0.009,0.123-0.027
	c1.544-0.71,4.141-0.426,4.852-0.013c0.141,0.082,0.322,0.034,0.404-0.107C8.752,12.338,8.705,12.157,8.564,12.075L8.564,12.075z
	 M8.564,12.075"/>
<path d="M8.564,14.242c-0.464-0.269-1.383-0.458-2.399-0.493c-0.678-0.023-1.968,0.008-2.996,0.481
	c-0.148,0.068-0.213,0.243-0.145,0.392c0.05,0.108,0.157,0.172,0.268,0.172c0.041,0,0.083-0.009,0.123-0.027
	c1.544-0.71,4.141-0.426,4.852-0.013c0.141,0.082,0.322,0.034,0.404-0.107C8.752,14.504,8.705,14.324,8.564,14.242L8.564,14.242z
	 M8.564,14.242"/>
<path d="M8.564,9.909C8.1,9.639,7.18,9.45,6.164,9.415C5.486,9.391,4.196,9.422,3.168,9.896c-0.148,0.068-0.213,0.244-0.145,0.392
	c0.05,0.108,0.157,0.172,0.268,0.172c0.041,0,0.083-0.009,0.123-0.027c1.543-0.711,4.14-0.426,4.852-0.013
	c0.141,0.082,0.322,0.034,0.404-0.107C8.752,10.171,8.705,9.99,8.564,9.909L8.564,9.909z M8.564,9.909"/>
<path d="M11.733,12.586c0.711-0.413,3.307-0.698,4.85,0.013c0.04,0.018,0.082,0.027,0.123,0.027c0.112,0,0.219-0.064,0.268-0.172
	c0.068-0.148,0.003-0.323-0.145-0.392c-1.027-0.473-2.318-0.504-2.995-0.48c-1.017,0.035-1.936,0.224-2.399,0.493
	c-0.141,0.082-0.189,0.263-0.107,0.404C11.411,12.62,11.592,12.668,11.733,12.586L11.733,12.586z M11.733,12.586"/>
<path d="M16.83,14.229c-1.027-0.473-2.318-0.504-2.995-0.481c-1.017,0.035-1.936,0.224-2.399,0.493
	c-0.141,0.082-0.189,0.263-0.107,0.404c0.082,0.141,0.263,0.189,0.404,0.107c0.711-0.413,3.306-0.698,4.85,0.013
	c0.04,0.018,0.082,0.027,0.123,0.027c0.112,0,0.219-0.064,0.268-0.172C17.043,14.473,16.978,14.297,16.83,14.229L16.83,14.229z
	 M16.83,14.229"/>
<path d="M13.88,1.569c0.163,0,0.295-0.132,0.295-0.295V0.499c0-0.163-0.132-0.295-0.295-0.295c-0.163,0-0.295,0.132-0.295,0.295
	v0.775C13.584,1.437,13.717,1.569,13.88,1.569L13.88,1.569z M13.88,1.569"/>
<path d="M11.159,2.173c0.058,0.058,0.133,0.086,0.209,0.086c0.076,0,0.151-0.029,0.209-0.087c0.115-0.115,0.115-0.302,0-0.417
	l-0.549-0.549c-0.115-0.115-0.302-0.115-0.417,0c-0.115,0.115-0.115,0.302,0,0.417L11.159,2.173z M11.159,2.173"/>
<path d="M16.391,2.26c0.076,0,0.151-0.029,0.209-0.087l0.548-0.549c0.115-0.115,0.115-0.302,0-0.418
	c-0.115-0.115-0.302-0.115-0.417,0l-0.548,0.549c-0.115,0.115-0.115,0.302,0,0.417C16.241,2.231,16.316,2.26,16.391,2.26
	L16.391,2.26z M16.391,2.26"/>
<path d="M3.024,8.12c0.05,0.108,0.157,0.172,0.268,0.172c0.041,0,0.083-0.009,0.123-0.027c1.542-0.709,4.14-0.425,4.852-0.013
	c0.141,0.082,0.322,0.034,0.403-0.107c0.082-0.141,0.034-0.322-0.108-0.403C8.1,7.472,7.18,7.283,6.164,7.248
	c-0.678-0.023-1.968,0.008-2.996,0.48C3.02,7.796,2.956,7.972,3.024,8.12L3.024,8.12z M3.024,8.12"/>
</svg>
