<?xml version="1.0" encoding="utf-8"?>
<!-- Generator: Adobe Illustrator 24.1.1, SVG Export Plug-In . SVG Version: 6.00 Build 0)  -->
<svg version="1.0" id="Layer_1" xmlns="http://www.w3.org/2000/svg" xmlns:xlink="http://www.w3.org/1999/xlink" x="0px" y="0px"
	 viewBox="0 0 20 20" enable-background="new 0 0 20 20" xml:space="preserve">
<path d="M9.631,3.068c0.211,0,0.381-0.171,0.381-0.382V0.985c0-0.211-0.171-0.382-0.381-0.382c-0.211,0-0.382,0.171-0.382,0.382
	v1.702C9.249,2.897,9.42,3.068,9.631,3.068L9.631,3.068z M9.631,3.068"/>
<path d="M18.957,13.711l-0.674-0.672c-0.24-0.24-0.559-0.371-0.9-0.371c-0.218,0-0.427,0.054-0.612,0.156l-1.27-1.269l0.062-0.062
	c0.515-0.516,0.515-1.355,0-1.87c-0.184-0.185-0.414-0.307-0.664-0.359c0.034-0.119,0.052-0.244,0.052-0.371
	c0-0.355-0.138-0.687-0.387-0.935C14.38,7.773,14.15,7.65,13.9,7.598c0.034-0.119,0.053-0.243,0.053-0.371
	c0-0.354-0.138-0.687-0.387-0.935c-0.188-0.188-0.42-0.307-0.664-0.358c0.13-0.449,0.019-0.954-0.334-1.308
	c-0.294-0.293-0.693-0.418-1.077-0.378L8.974,3.772C8.59,3.699,8.111,3.651,7.808,3.927C7.789,3.944,7.769,3.964,7.75,3.987
	C7.281,3.816,6.734,3.918,6.358,4.293C6.109,4.542,5.972,4.874,5.972,5.228c0,0.128,0.018,0.252,0.052,0.371
	c-0.25,0.052-0.48,0.174-0.663,0.358c-0.25,0.249-0.387,0.58-0.388,0.934c0,0.128,0.018,0.253,0.053,0.372
	c-0.25,0.052-0.48,0.174-0.664,0.358c-0.25,0.249-0.387,0.582-0.387,0.936c0,0.271,0.081,0.529,0.231,0.748
	C4.017,9.37,3.843,9.477,3.698,9.622c-0.516,0.515-0.516,1.354,0,1.871l0.062,0.061l-1.27,1.268
	c-0.472-0.222-1.054-0.139-1.443,0.25l-0.674,0.672C0.132,13.985,0,14.304,0,14.645c0,0.341,0.132,0.66,0.372,0.9l0.842,0.841
	c0.149,0.149,0.391,0.149,0.539,0c0.149-0.149,0.149-0.391,0-0.54l-0.842-0.841c-0.096-0.095-0.148-0.223-0.148-0.36
	s0.053-0.265,0.148-0.36l0.674-0.672c0.169-0.168,0.426-0.193,0.622-0.076c0.014,0.021,0.03,0.04,0.048,0.059
	c0.033,0.033,0.07,0.058,0.11,0.076l3.868,3.862c0.019,0.04,0.044,0.078,0.077,0.111c0.032,0.032,0.069,0.057,0.108,0.075
	c0.082,0.093,0.127,0.211,0.127,0.337c0,0.137-0.053,0.265-0.148,0.36l-0.674,0.673c-0.199,0.198-0.523,0.198-0.722,0.001
	l-0.842-0.842c-0.149-0.149-0.391-0.149-0.54,0c-0.149,0.149-0.149,0.391,0,0.539l0.842,0.842C4.71,19.876,5.035,20,5.361,20
	c0.326,0,0.652-0.124,0.9-0.371l0.674-0.673c0.24-0.24,0.372-0.559,0.372-0.9c0-0.243-0.068-0.475-0.193-0.676l1.43-1.428
	c0.002-0.002,0.003-0.003,0.005-0.005c0.164-0.169,0.62-0.137,1.06-0.107c0.313,0.022,0.663,0.046,1.004,0.007l1.565,1.564
	c-0.101,0.185-0.155,0.394-0.155,0.611c0,0.34,0.132,0.66,0.372,0.899l0.674,0.673c0.24,0.24,0.559,0.371,0.9,0.371
	c0.341,0,0.66-0.132,0.9-0.371l4.089-4.084c0.24-0.24,0.372-0.559,0.372-0.9C19.329,14.27,19.197,13.95,18.957,13.711L18.957,13.711
	z M8.832,4.522l1.655,0.313l-0.991,0.99C9.343,5.752,9.133,5.614,8.902,5.394c-0.315-0.302-0.541-0.65-0.562-0.867c0,0,0,0,0,0
	c0,0,0,0,0,0C8.34,4.51,8.339,4.498,8.339,4.488C8.389,4.476,8.522,4.463,8.832,4.522L8.832,4.522z M6.898,4.833
	C7.091,4.64,7.391,4.618,7.609,4.765c0.124,0.519,0.567,0.989,0.766,1.18C8.523,6.086,8.996,6.51,9.474,6.626
	c0.065,0.093,0.1,0.203,0.1,0.32c0,0.15-0.058,0.291-0.163,0.396C9.306,7.447,9.165,7.505,9.015,7.505
	c-0.151,0-0.291-0.058-0.397-0.163v0l0,0L6.898,5.624C6.793,5.519,6.735,5.378,6.735,5.228C6.735,5.078,6.793,4.938,6.898,4.833
	L6.898,4.833z M5.9,6.498c0.105-0.105,0.245-0.163,0.396-0.163c0.15,0,0.291,0.058,0.397,0.164l1.386,1.383
	C8.297,8.1,8.297,8.455,8.08,8.673C7.974,8.778,7.833,8.836,7.682,8.836c-0.151,0-0.292-0.058-0.397-0.163L6.234,7.622
	C6.232,7.621,6.231,7.619,6.229,7.617L5.9,7.289C5.795,7.183,5.737,7.043,5.737,6.893C5.737,6.743,5.795,6.603,5.9,6.498L5.9,6.498z
	 M4.902,8.162C5.007,8.057,5.148,8,5.298,8c0.149,0,0.289,0.057,0.394,0.16l1.054,1.054c0.105,0.105,0.163,0.245,0.163,0.395
	c0,0.15-0.058,0.29-0.163,0.395C6.641,10.109,6.5,10.167,6.35,10.167c-0.151,0-0.292-0.058-0.397-0.163L5.571,9.622c0,0,0,0,0,0
	L4.902,8.954C4.796,8.849,4.738,8.708,4.738,8.558C4.738,8.408,4.796,8.267,4.902,8.162L4.902,8.162z M4.237,10.162
	c0.106-0.105,0.246-0.163,0.397-0.163c0.151,0,0.291,0.058,0.397,0.163l0.383,0.382c0.105,0.105,0.163,0.245,0.163,0.395
	c0,0.15-0.058,0.29-0.164,0.396c-0.105,0.105-0.246,0.163-0.396,0.163c-0.151,0-0.291-0.058-0.397-0.164l-0.048-0.048
	c-0.001-0.001-0.001-0.001-0.002-0.002c-0.001-0.001-0.002-0.001-0.002-0.002l-0.331-0.329C4.019,10.735,4.019,10.38,4.237,10.162
	L4.237,10.162z M12.012,14.498c-0.149-0.149-0.39-0.149-0.539,0l-0.34,0.339c-0.322,0.323-0.907,0.282-1.472,0.243
	c-0.614-0.043-1.248-0.087-1.659,0.335l-1.405,1.404l-3.514-3.509l1.244-1.241c0.205,0.126,0.443,0.194,0.691,0.194
	c0.355,0,0.687-0.138,0.935-0.386c0.25-0.249,0.388-0.581,0.388-0.936c0-0.003,0-0.007,0-0.01c0.003,0,0.006,0,0.01,0
	c0.354,0,0.686-0.137,0.935-0.385c0.25-0.249,0.388-0.581,0.388-0.936c0-0.003,0-0.007,0-0.01c0.003,0,0.007,0,0.01,0
	c0.354,0,0.686-0.137,0.937-0.386c0.26-0.26,0.388-0.603,0.386-0.945c0.003,0,0.007,0,0.01,0c0.355,0,0.687-0.137,0.936-0.387
	C10.2,7.632,10.337,7.3,10.337,6.946c0-0.248-0.067-0.485-0.193-0.69l1.09-1.09c0.081-0.081,0.181-0.132,0.286-0.153
	c0.011-0.001,0.022-0.003,0.034-0.005c0.168-0.023,0.345,0.029,0.474,0.157c0.218,0.219,0.218,0.574,0.001,0.792l-0.332,0.331
	c-0.001,0.001-0.002,0.002-0.003,0.003l-0.382,0.382c-0.149,0.149-0.149,0.39,0,0.54c0.149,0.149,0.391,0.149,0.54,0l0.333-0.333
	c0,0,0,0,0,0l0.051-0.05c0.219-0.217,0.573-0.216,0.792,0.002c0.105,0.105,0.163,0.245,0.163,0.395c0,0.15-0.058,0.29-0.164,0.396
	l-0.334,0.334v0l-0.382,0.381c-0.149,0.149-0.15,0.39-0.001,0.539c0.149,0.149,0.39,0.15,0.54,0.001l0.384-0.383
	c0.105-0.105,0.246-0.163,0.396-0.163c0.151,0,0.291,0.058,0.397,0.164c0.105,0.105,0.163,0.245,0.163,0.395
	c0,0.15-0.058,0.29-0.164,0.396l-0.666,0.666c-0.149,0.149-0.149,0.391,0,0.539c0.075,0.075,0.172,0.112,0.27,0.112
	c0.098,0,0.195-0.037,0.27-0.112l0.326-0.326c0.002-0.002,0.004-0.003,0.006-0.005c0.105-0.105,0.246-0.163,0.396-0.163
	c0.151,0,0.291,0.058,0.396,0.163c0.218,0.218,0.218,0.573,0,0.791l-0.332,0.331l0,0c0,0,0,0,0,0l-0.526,0.526
	c-0.149,0.149-0.149,0.39,0,0.54c0.075,0.075,0.172,0.112,0.27,0.112c0.098,0,0.195-0.037,0.27-0.112l0.257-0.257l1.234,1.233
	l-3.514,3.51l-1.259-1.258c0.088-0.056,0.172-0.123,0.251-0.202l0.339-0.339C12.161,14.889,12.161,14.647,12.012,14.498
	L12.012,14.498z M18.418,14.971l-4.089,4.084c-0.096,0.096-0.224,0.148-0.361,0.148c-0.137,0-0.265-0.053-0.36-0.148l-0.674-0.673
	c-0.096-0.096-0.148-0.223-0.148-0.359c0-0.136,0.052-0.264,0.148-0.359l4.089-4.084c0.096-0.096,0.224-0.148,0.361-0.148
	c0.137,0,0.265,0.052,0.361,0.148l0.674,0.672c0.096,0.095,0.148,0.223,0.148,0.36S18.513,14.875,18.418,14.971L18.418,14.971z
	 M18.418,14.971"/>
<path d="M4.564,2.746c0.074,0.074,0.172,0.111,0.269,0.111c0.098,0,0.196-0.037,0.27-0.112c0.149-0.149,0.149-0.391-0.001-0.54
	l-1.39-1.387C3.564,0.67,3.322,0.67,3.174,0.819S3.025,1.21,3.174,1.359L4.564,2.746z M4.564,2.746"/>
<path d="M14.427,2.858c0.097,0,0.195-0.037,0.27-0.111l1.389-1.388c0.149-0.149,0.149-0.39,0-0.54c-0.149-0.149-0.39-0.149-0.539,0
	l-1.389,1.387c-0.149,0.149-0.149,0.391,0,0.539C14.232,2.82,14.33,2.858,14.427,2.858L14.427,2.858z M14.427,2.858"/>
<path d="M2.346,17.015c-0.148,0.15-0.146,0.392,0.005,0.54l0.001,0.001c0.074,0.073,0.17,0.109,0.267,0.109
	c0.099,0,0.198-0.038,0.272-0.114c0.148-0.15,0.145-0.392-0.005-0.54C2.735,16.863,2.494,16.865,2.346,17.015L2.346,17.015z
	 M2.346,17.015"/>
<path d="M12.945,13.949c0.058,0,0.117-0.013,0.172-0.041c0.188-0.095,0.264-0.324,0.169-0.512c-0.095-0.188-0.324-0.264-0.512-0.169
	l-0.002,0.001c-0.188,0.095-0.263,0.324-0.168,0.512C12.671,13.872,12.806,13.949,12.945,13.949L12.945,13.949z M12.945,13.949"/>
</svg>
