<?xml version="1.0" encoding="utf-8"?>
<!-- Generator: Adobe Illustrator 16.0.0, SVG Export Plug-In . SVG Version: 6.00 Build 0)  -->
<!DOCTYPE svg PUBLIC "-//W3C//DTD SVG 1.1//EN" "http://www.w3.org/Graphics/SVG/1.1/DTD/svg11.dtd">
<svg version="1.1" id="Layer_1" xmlns="http://www.w3.org/2000/svg" xmlns:xlink="http://www.w3.org/1999/xlink" x="0px" y="0px"
	 width="198.669px" height="167.945px" viewBox="0 0 198.669 167.945" enable-background="new 0 0 198.669 167.945"
	 xml:space="preserve">
<path fill="#0A4F94" d="M14.562,40.732c-0.585-0.619-1.041-0.826-1.517-1.232c-0.464-0.364-0.876-0.596-1.343-0.648
	c-0.89-0.145-1.901,0.94-2.261,1.636c-0.146,0.219-0.149,0.285-0.16,0.459c0.001,0.226,0.028,0.426,0.035,0.646L6.709,39.1
	c-0.106-0.071-0.399-0.13-0.468-0.136c-3.729-0.26-3.791,2.413-3.457,3.791c0.035,0.215,0.07,0.248,0.165,0.34l6.58,6.286
	c0.352,0.334,0.712,0.664,1.067,0.997c0.016,0.072,0.029,0.146,0.046,0.218c0.789,3.505,1.751,6.93,2.842,10.332
	c0.548,1.701,1.127,3.392,1.776,5.079c0.155,0.421,0.315,0.843,0.493,1.265l0.683,1.639l1.074,2.376
	c0.191,0.363,0.325,0.865,0.567,1.116l1.174-0.286l4.207-1.034l2.561-0.671c1.708-0.462,3.419-0.943,5.136-1.497
	c1.717-0.559,3.439-1.148,5.172-1.932c1.724-0.783,3.489-1.71,5.14-3.14c1.672-1.378,3.032-3.57,3.558-5.772
	c0.534-2.209,0.432-4.26,0.241-6.159c-0.441-3.797-1.353-7.206-2.195-10.624L40.305,30.41c0.518-1.002,1.014-2.017,1.548-3.011
	l1.443-2.648l1.284-2.258c0,0,1.678-3.41,3.453-6.69c1.751-3.292,3.581-6.463,3.359-6.229c2.894-5.388,4.229-9.409-2.406-1.858
	c-2.004,2.199-4.21,5.042-5.911,7.342c-1.679,2.312-2.868,4.069-2.868,4.069c-0.842,1.492-1.709,2.969-2.515,4.481
	c-0.951,1.733-1.863,3.488-2.763,5.25l-0.579,0.012c-0.935,0.056-1.869,0.103-2.796,0.214c0,0-1.014,0.155-2.494,0.474
	c-1.477,0.336-3.409,0.855-5.265,1.493c-3.719,1.269-7.088,2.966-6.761,2.895c-2.799,1.472-4.887,3.018-5.13,3.713
	c-0.235,0.736,1.351,0.51,6.08-0.821c2.815-0.708,6.194-1.439,8.86-1.804c2.67-0.369,4.621-0.439,4.621-0.439
	c0.227-0.024,0.453-0.036,0.681-0.059c-2.248,4.761-4.33,9.602-6.191,14.533c-0.419,1.093-0.827,2.19-1.211,3.296l-0.769,2.171
	c-0.012,0.03-0.039,0.122-0.036,0.097l-0.446-0.342c-2.717-2.077-5.325-4.362-7.895-6.737c-0.456-2.266-0.815-4.549-0.837-6.511
	C14.748,40.957,14.603,40.774,14.562,40.732 M18.344,57.212c0.519,0.414,1.03,0.833,1.564,1.234l0.845,0.647l1.551,1.099
	c1.036,0.736,2.081,1.461,3.135,2.175l0.787,0.539l0.393,0.27c0.058,0.017,0.152,0.15,0.177,0.073l0.075-0.222l0.604-1.774
	l2.072-6.047c0.837-2.393,1.724-4.769,2.66-7.125c1.353-3.41,2.838-6.765,4.384-10.094l0.923,3.609
	c0.86,3.418,1.749,6.839,2.226,10.094c0.225,1.615,0.313,3.185,0.088,4.483c-0.209,1.315-0.689,2.292-1.595,3.192
	c-1.806,1.842-5.092,3.103-8.257,4.172c-1.627,0.517-3.275,1.014-4.959,1.462l-3.719,0.972c-0.175,0.045-0.148,0.032-0.148,0.032
	l-0.213-0.522c-0.16-0.394-0.325-0.783-0.471-1.188c-0.61-1.601-1.19-3.229-1.717-4.881c-0.264-0.823-0.496-1.657-0.745-2.486
	C18.119,57.02,18.228,57.119,18.344,57.212"/>
<path fill="#2E2C54" d="M17.443,88.229c-0.091,0.203-0.082,0.251-0.054,0.384c0.665,3.023,1.42,6.015,2.238,8.984
	c0.962,3.471,2.008,6.908,3.105,10.318l1.896,5.75l0.85,2.525l0.212,0.631l0.106,0.316c0.103-0.017,0.214-0.05,0.319-0.074
	l1.288-0.314l4.219-1.025c3.44-0.838,6.896-1.623,10.409-2.595c1.755-0.487,3.525-1.013,5.324-1.72
	c1.788-0.718,3.646-1.562,5.397-3.016c1.737-1.435,3.217-3.722,3.604-6.007c0.455-2.273,0.276-4.369-0.03-6.306
	c-0.647-3.886-1.9-7.319-3.151-10.74c-0.643-1.699-1.313-3.374-2-5.037l-1.709-4.042l-0.461-1.085
	c-0.011-0.136-0.128-0.098-0.241-0.068l-0.325,0.069l-0.649,0.138l-2.598,0.55l-2.578,0.589l-1.305,0.316l-2.6,0.684
	c0,0-3.733,1.245-7.268,2.73c-3.545,1.463-6.887,3.122-6.563,3.052c-1.962,1.037-3.586,2.078-4.466,2.845
	C18.775,85.825,17.81,87.205,17.443,88.229 M25.835,86.125c2.841-0.702,6.236-1.582,8.94-2.188c2.701-0.617,4.7-1.019,4.7-1.019
	L42,82.246l1.269-0.317l1.546-0.367l0.881-0.2c-0.013-0.042,0.042,0.091,0.082,0.186l0.124,0.293l0.8,1.953l0.982,2.478
	c1.277,3.3,2.439,6.639,3.113,9.879c0.315,1.607,0.473,3.187,0.317,4.524c-0.2,1.325-0.614,2.31-1.509,3.173
	c-1.813,1.769-5.232,2.909-8.53,3.855c-3.365,0.945-6.875,1.753-10.384,2.601l-1.303,0.313c-0.009,0.003-0.009-0.002-0.009-0.002
	l-1.382-4.208c-1.1-3.414-2.143-6.835-3.094-10.272c-0.794-2.887-1.522-5.785-2.162-8.695c-0.05-0.116-0.252-0.323-0.305-0.365
	c-0.033-0.026-0.063-0.044-0.095-0.068C23.246,86.814,24.375,86.532,25.835,86.125"/>
<path fill="#2E2C54" d="M34.64,156.707l0.992,4.56c0.06,0.216,0.074,0.489,0.172,0.659l0.703-0.001l1.406-0.001l2.565-0.003
	c1.905-0.014,3.813-0.042,5.733-0.139c3.842-0.206,7.708-0.477,11.683-1.47c1.979-0.488,4.014-1.159,5.991-2.377
	c1.978-1.157,3.833-3.213,4.688-5.575c0.891-2.362,0.904-4.694,0.717-6.78c-0.192-2.111-0.635-4.06-1.114-5.966
	c-0.978-3.806-2.215-7.383-3.404-10.964l-1.899-5.657l-0.861-2.577l-0.431-1.289l-0.108-0.322c-0.087-0.019-0.221,0.038-0.329,0.053
	l-0.685,0.15l-2.738,0.599l-1.273,0.3l-0.707,0.175l-2.351,0.63l-1.301,0.39c-0.87,0.251-1.724,0.548-2.585,0.824
	c0,0-3.68,1.478-7.106,3.244c-3.44,1.745-6.626,3.749-6.307,3.649c-2.628,1.744-4.553,3.521-4.714,4.238
	c-0.147,0.755,1.392,0.35,5.96-1.463c2.737-0.984,6.028-2.137,8.666-2.935c2.633-0.813,4.593-1.317,4.593-1.317
	c0.813-0.294,1.638-0.544,2.458-0.815l1.238-0.37l0.619-0.185l0.922-0.252l1.334-0.35l0.673-0.167
	c0.007,0.001,0.008-0.024,0.037,0.071l1.352,4.029c1.217,3.621,2.44,7.218,3.422,10.775c0.474,1.772,0.885,3.538,1.104,5.234
	c0.222,1.693,0.223,3.315-0.134,4.608c-0.331,1.309-1.066,2.236-2.214,3.068c-1.148,0.82-2.698,1.424-4.345,1.874
	c-3.329,0.896-7.037,1.234-10.733,1.422c-1.855,0.096-3.729,0.131-5.603,0.15h-0.539h0.004l-0.001-0.001l-0.172-0.763l-2.699-11.152
	c-0.664-2.906-1.244-5.79-1.542-8.633c-0.036-0.116-0.218-0.336-0.267-0.382c-1.283-1.244-2.39-1.505-3.262-1.217
	c-0.869,0.279-1.503,1.102-1.831,1.782c-0.111,0.196-0.106,0.247-0.093,0.388c0.339,3.199,0.969,6.279,1.657,9.292L34.64,156.707z"
	/>
<path fill="#0A4F94" d="M65.936,35.353c-1.437,0.549-2.851,1.2-4.277,1.796c-0.109,0.071-0.281,0.315-0.313,0.376
	c-1.718,3.309,0.761,4.417,2.142,4.672c0.21,0.054,0.254,0.036,0.374-0.014c1.368-0.571,2.708-1.191,4.1-1.723l4.178-1.589
	c13.631-4.93,27.81-8.66,41.998-12.296l21.362-5.327l16.769-4.246c0,0,3.657-1.218,7.241-2.414c3.572-1.242,7.054-2.475,6.725-2.459
	c5.755-2.373,9.162-4.641-0.65-2.974c-5.828,0.809-14.002,2.368-14.002,2.368l-16.31,4.137l-21.753,5.417
	c-14.499,3.707-29.02,7.495-43.267,12.637L65.936,35.353z"/>
<path fill="#2E2C54" d="M159.952,54.537c-5.851,0.749-14.035,2.349-14.035,2.349l-4.889,1.291
	c-17.867,4.698-35.818,9.114-53.792,13.477l-8.828,2.137c-0.118,0.052-0.324,0.263-0.365,0.317c-2.239,2.977-0.078,4.507,1.28,4.977
	c0.2,0.088,0.247,0.077,0.378,0.048l8.831-2.142l30.074-7.408l15.017-3.817l13.006-3.406c0,0,3.646-1.225,7.222-2.427
	c3.567-1.216,7.046-2.447,6.722-2.417C166.331,55.239,169.811,53.01,159.952,54.537"/>
<path fill="#2E2C54" d="M187.791,99.158c-5.88,0.509-14.126,1.837-14.126,1.837l-35.928,8.347
	c-13.531,3.198-27.052,6.483-40.522,9.999l-8.804,2.327c-0.116,0.054-0.317,0.271-0.357,0.326c-2.167,3.029,0.041,4.504,1.405,4.943
	c0.202,0.084,0.249,0.071,0.378,0.038l8.763-2.32c13.188-3.445,26.44-6.673,39.719-9.816l35.88-8.349c0,0,14.744-4.354,14.093-4.33
	C194.131,100.128,197.712,98.046,187.791,99.158"/>
<path fill="#0A4F94" d="M123.946,36.587c-5.845,0.514-14.113,1.639-14.113,1.639l-4.968,1.053
	c-8.842,1.885-17.757,4.006-26.438,7.175c-2.905,1.096-5.801,2.252-8.607,3.642c-0.108,0.076-0.271,0.33-0.303,0.392
	c-1.596,3.398,0.953,4.382,2.318,4.587c0.21,0.046,0.252,0.025,0.369-0.029c2.622-1.302,5.36-2.395,8.119-3.438
	c8.259-3.021,16.922-5.103,25.694-6.977l4.24-0.901c0,0,3.701-1.027,7.339-2.037c3.635-1.023,7.18-2.114,6.851-2.105
	C130.332,37.5,133.806,35.373,123.946,36.587"/>
<path fill="#2E2C54" d="M177.48,114.652c-5.894,0.35-14.179,1.516-14.179,1.516l-13.367,2.888
	c-5.318,1.19-10.633,2.404-15.932,3.706c-10.604,2.575-21.153,5.445-31.597,8.719c-2.905,0.927-5.81,1.864-8.694,2.864
	c-0.113,0.062-0.302,0.291-0.338,0.349c-1.965,3.167,0.359,4.484,1.74,4.836c0.207,0.07,0.253,0.054,0.379,0.014
	c2.838-0.986,5.698-1.909,8.563-2.825c10.125-3.176,20.38-5.981,30.719-8.502c5.164-1.278,10.356-2.462,15.552-3.638l13.404-2.908
	c0,0,3.698-1.019,7.325-2.018c3.624-1.001,7.172-1.992,6.845-1.987C183.79,115.793,187.431,113.809,177.48,114.652"/>
<path fill="#2E2C54" d="M154.875,70.299c-5.862,0.441-14.14,1.55-14.14,1.55l-4.969,1.034c-14.063,3.003-28.299,6.173-41.851,12.065
	c-1.438,0.59-2.836,1.296-4.236,1.998c-1.413,0.664-2.779,1.446-4.14,2.245c-0.104,0.086-0.248,0.35-0.273,0.415
	c-1.339,3.504,1.308,4.277,2.676,4.387c0.213,0.031,0.253,0.008,0.364-0.055c1.253-0.737,2.514-1.463,3.845-2.086
	c1.307-0.657,2.611-1.32,3.979-1.879c12.826-5.593,26.799-8.755,40.766-11.733l4.247-0.886c0,0,3.704-1.012,7.341-2.006
	c3.635-1.002,7.185-2.054,6.856-2.042C161.238,71.301,164.766,69.232,154.875,70.299"/>
</svg>
