<?xml version="1.0" encoding="utf-8"?>
<!-- Generator: Adobe Illustrator 16.0.0, SVG Export Plug-In . SVG Version: 6.00 Build 0)  -->
<!DOCTYPE svg PUBLIC "-//W3C//DTD SVG 1.1//EN" "http://www.w3.org/Graphics/SVG/1.1/DTD/svg11.dtd">
<svg version="1.1" id="Calque_1" xmlns="http://www.w3.org/2000/svg" xmlns:xlink="http://www.w3.org/1999/xlink" x="0px" y="0px"
	 width="600px" height="300px" viewBox="0 0 600 300" enable-background="new 0 0 600 300" xml:space="preserve">
<g>
	<g>
		<g>
			<path fill="#FFFFFF" d="M98.365,85.402v121.334l16.49,35.156L87.79,255.271l-26.758-35.779V85.402H8.764V51.489H149.7v33.913
				H98.365L98.365,85.402z"/>
		</g>
		<circle fill="#FFFFFF" cx="173.377" cy="153.381" r="29.952"/>
		<g>
			<path fill="#FFFFFF" d="M236.771,60.914c0-1.529,0.525-2.868,1.577-4.014c1.049-1.147,2.532-1.72,4.444-1.72h23.512
				c1.526,0,2.912,0.48,4.156,1.433c1.241,0.959,1.863,2.393,1.863,4.301v140.493c0,4.014,1.433,7.455,4.301,10.321
				c2.868,2.867,6.31,4.301,10.322,4.301h2.293c1.527,0,2.867,0.625,4.014,1.865c1.146,1.246,1.72,2.82,1.72,4.732v23.223
				c0,3.44-1.913,5.349-5.734,5.733h-2.293c-6.882,0-13.381-1.289-19.497-3.869c-6.12-2.581-11.47-6.166-16.057-10.753
				c-4.588-4.587-8.171-9.938-10.753-16.058c-2.581-6.114-3.87-12.615-3.87-19.496L236.771,60.914L236.771,60.914z"/>
			<path fill="#FFFFFF" d="M315.621,111.089c0-1.528,0.474-2.867,1.433-4.013c0.954-1.147,2.388-1.72,4.301-1.72h23.513
				c1.334,0,2.722,0.527,4.155,1.576c1.434,1.054,2.151,2.437,2.151,4.158v131.892c0,3.825-2.105,5.734-6.309,5.734h-23.512
				c-3.826,0-5.734-1.909-5.734-5.734V111.089H315.621z"/>
			<path fill="#FFFFFF" d="M370.957,111.089c0-1.528,0.477-2.867,1.433-4.013c0.957-1.147,2.39-1.72,4.304-1.72h23.51
				c-0.193,0,0.667,0.192,2.579,0.573c2.87-0.954,5.832-1.766,8.891-2.438c3.056-0.668,6.209-1.002,9.462-1.002
				c6.881,0,13.379,1.29,19.495,3.87c6.117,2.581,11.47,6.165,16.059,10.751c4.587,4.587,8.172,9.942,10.752,16.057
				c2.581,6.118,3.869,12.616,3.869,19.497v90.317c0,1.532-0.621,2.867-1.862,4.014c-1.245,1.146-2.631,1.72-4.158,1.72h-23.796
				c-1.533,0-2.87-0.474-4.017-1.434c-1.147-0.954-1.721-2.388-1.721-4.3v-90.317c0-3.822-1.435-7.213-4.302-10.179
				c-2.867-2.961-6.309-4.444-10.319-4.444c-3.827,0-7.22,1.434-10.18,4.301c-2.966,2.867-4.442,6.213-4.442,10.034v90.604
				c0,3.825-2.01,5.733-6.023,5.733h-23.797c-3.827,0-5.738-1.908-5.738-5.733V111.089H370.957z"/>
			<path fill="#FFFFFF" d="M486.221,60.914c0-1.335,0.475-2.626,1.434-3.87c0.953-1.242,2.194-1.864,3.728-1.864h24.659
				c1.335,0,2.627,0.573,3.869,1.72c1.242,1.146,1.864,2.485,1.864,4.014v82.289l24.087-35.553c0.952-1.528,2.48-2.293,4.588-2.293
				h30.104c1.336,0,2.624,0.429,3.87,1.289c1.239,0.86,1.864,2.057,1.864,3.584c0-0.187-0.194,0.479-0.573,2.007l-40.143,59.924
				l45.302,68.24c0.573,0.96,0.86,1.914,0.86,2.867c0,1.533-0.624,2.822-1.865,3.872c-1.241,1.053-2.821,1.575-4.728,1.575h-28.387
				c-0.573,0-1.29-0.143-2.149-0.429c-0.862-0.287-1.676-0.906-2.437-1.864l-30.393-45.302v41.861c0,1.532-0.479,2.867-1.433,4.015
				c-0.96,1.146-2.394,1.72-4.302,1.72h-24.659c-3.44,0-5.161-1.909-5.161-5.734V60.914L486.221,60.914z"/>
		</g>
		<circle fill="#FFFFFF" cx="333.397" cy="78.141" r="21.892"/>
	</g>
</g>
</svg>
