<?xml version="1.0" encoding="utf-8"?>
<!-- Generator: Adobe Illustrator 16.0.0, SVG Export Plug-In . SVG Version: 6.00 Build 0)  -->
<!DOCTYPE svg PUBLIC "-//W3C//DTD SVG 1.1//EN" "http://www.w3.org/Graphics/SVG/1.1/DTD/svg11.dtd">
<svg version="1.1" id="Layer_1" xmlns="http://www.w3.org/2000/svg" xmlns:xlink="http://www.w3.org/1999/xlink" x="0px" y="0px"
	 width="226px" height="19.481px" viewBox="0 0 226 19.481" enable-background="new 0 0 226 19.481" xml:space="preserve">
<path fill="#C52447" d="M7.671,8.12c1.739,0.03,3.479-0.032,5.216-0.06c0.708-0.009,1.416-0.033,2.122-0.054
	c3.117-0.093,6.234-0.186,9.351-0.278c3.728-0.109,7.455-0.23,11.182-0.358c5.323-0.185,10.647-0.367,15.97-0.552
	c1.221-0.042,2.441-0.066,3.661-0.099c3.102-0.086,6.203-0.171,9.305-0.256c3.101-0.085,6.203-0.17,9.305-0.255
	c1.213-0.032,2.429-0.079,3.643-0.1c4.948-0.073,9.897-0.146,14.845-0.221c3.043-0.045,6.086-0.091,9.128-0.137
	c1.191-0.019,2.384-0.051,3.576-0.052c4.782-0.007,9.565-0.018,14.348-0.025c4.719-0.007,9.439-0.015,14.159-0.024
	c1.245-0.002,2.492,0.02,3.737,0.028l9.243,0.067c4.79,0.033,9.581,0.072,14.372,0.104c1.566,0.01,3.134,0.041,4.7,0.063
	c3.279,0.043,6.56,0.087,9.84,0.13c0.272,0.003,0.543,0.008,0.814,0.012c-7.386,0.002-14.77,0.006-22.155,0.02
	c-3.083,0.004-6.167,0.009-9.251,0.014c-1.33,0.002-2.662-0.008-3.992,0.006c-4.462,0.046-8.924,0.101-13.385,0.153
	c-5.157,0.059-10.315,0.115-15.472,0.175c-0.867,0.01-1.733,0.041-2.599,0.063c-2.747,0.074-5.494,0.147-8.24,0.222
	C95.524,6.853,89.954,7.004,84.38,7.151c-0.825,0.022-1.648,0.061-2.472,0.098c-2.721,0.123-5.444,0.245-8.165,0.369
	c-4.876,0.22-9.751,0.437-14.626,0.659c-1.344,0.063-2.687,0.153-4.03,0.231c-3.123,0.179-6.244,0.358-9.366,0.537
	c-3.968,0.227-7.938,0.446-11.905,0.683c-5.523,0.329-11.044,0.66-16.566,0.992c-1.324,0.08-2.649,0.158-3.974,0.237
	c-2.374,0.142-4.741,0.357-7.11,0.545c-0.251,0.018-0.465,0.146-0.468,0.367c-0.002,0.211,0.207,0.365,0.46,0.378
	c0.865,0.04,1.73,0.079,2.595,0.117c-0.109,0.18-0.173,0.377-0.176,0.579c-0.007,0.71,0.759,1.421,1.683,1.385
	c6.769-0.27,13.536-0.567,20.311-0.758c5.88-0.163,11.762-0.327,17.643-0.491c6.502-0.183,13.004-0.364,19.506-0.546
	c2.048-0.058,4.095-0.114,6.141-0.173c0.59-0.015,1.183-0.041,1.773-0.046c10.472-0.115,20.945-0.225,31.417-0.338
	c5.597-0.059,11.193-0.12,16.789-0.179c2.023-0.022,4.043-0.037,6.066-0.042c10.711-0.025,21.421-0.047,32.132-0.072
	c4.589-0.01,9.178-0.023,13.767-0.035c3.918-0.01,7.837,0.01,11.754-0.067c3.235-0.065,6.474-0.13,9.71-0.194
	c1.615-0.033,3.233-0.047,4.848-0.112c3.675-0.147,7.35-0.299,11.024-0.459l-0.009,0.013c-0.21,0.281-0.269,0.628-0.164,0.945
	c0.102,0.31,0.355,0.578,0.695,0.742c0.32,0.156,0.813,0.248,1.177,0.136c0.804-0.247,1.604-0.501,2.4-0.761
	c-0.017,0.006-0.033,0.012-0.05,0.018c0.06-0.021,0.118-0.038,0.178-0.059c0.068-0.021,0.136-0.045,0.204-0.066
	c-0.024,0.009-0.049,0.017-0.074,0.023c0.425-0.139,0.85-0.278,1.275-0.418c0.443-0.143,0.89-0.289,1.333-0.439
	c0.481-0.164,0.942-0.364,1.408-0.56c0.526-0.218,0.853-0.708,0.857-1.175c0.001-0.248-0.075-0.479-0.227-0.695
	c-0.201-0.285-0.597-0.578-1.012-0.641c-0.409-0.063-0.817-0.11-1.23-0.157c-0.09-0.009-0.183-0.014-0.276-0.015
	c-0.278-0.003-0.569,0.024-0.835,0.038c-0.624,0.028-1.245,0.097-1.869,0.127c-0.509,0.023-1.017,0.049-1.525,0.071
	c-1.372,0.067-2.742,0.134-4.112,0.197c-0.354,0.019-0.708,0.031-1.063,0.046c0.13-0.117,0.224-0.25,0.279-0.401
	c0.065-0.12,0.103-0.247,0.112-0.379c0.015-0.094,0.033-0.187,0.05-0.279c0-0.122-0.026-0.239-0.073-0.352
	c0.036-0.013,0.072-0.023,0.107-0.036c0.259-0.12,0.467-0.283,0.621-0.49c0.16-0.215,0.239-0.446,0.242-0.696
	c0.002-0.25-0.073-0.484-0.228-0.702c-0.087-0.093-0.177-0.188-0.266-0.283c-0.212-0.174-0.464-0.294-0.755-0.363
	c-0.527-0.168-1.081-0.212-1.64-0.219c-0.457-0.005-0.918,0.017-1.371,0.017C206.646,4,205.987,4,205.328,3.998
	c-0.932-0.002-1.863,0-2.795-0.006c-2.461-0.017-4.924-0.032-7.384-0.048c-2.316-0.014-4.633-0.039-6.947-0.063
	c-2.105-0.024-4.21-0.047-6.314-0.063c-8.39-0.057-16.777-0.134-25.168-0.151c-6.292-0.016-12.582-0.028-18.874-0.043
	c-2.813-0.005-5.624,0-8.437,0.018c-6.304,0.042-12.609,0.085-18.913,0.126c-1.799,0.013-3.597,0.025-5.394,0.037
	c-1.043,0.007-2.086,0.04-3.129,0.062c-6.231,0.125-12.464,0.251-18.696,0.376c-1.902,0.038-3.804,0.075-5.706,0.114
	c-1.066,0.021-2.133,0.068-3.199,0.103c-6.191,0.203-12.383,0.407-18.573,0.608c-3.197,0.106-6.39,0.228-9.585,0.357
	c-5.47,0.22-10.939,0.442-16.409,0.662c-4.738,0.189-9.479,0.348-14.218,0.521c-0.752,0.027-1.503,0.056-2.253,0.081
	c-1.213,0.045-2.429,0.072-3.643,0.104c-1.077,0.026-2.16,0.04-3.239,0.006C6.346,6.573,6.075,6.386,5.763,6.402
	C5.066,6.439,4.371,6.494,3.674,6.546c-0.337,0.024-0.631,0.157-0.73,0.436c-0.109,0.311,0.12,0.67,0.519,0.752
	c0.301,0.063,0.601,0.125,0.903,0.185c0.297,0.057,0.611,0.076,0.911,0.1C6.074,8.083,6.874,8.104,7.671,8.12 M199.107,7.993
	c1.018,0.01,2.033,0.02,3.051,0.029c0.091,0.185,0.226,0.351,0.406,0.485c-0.395,0.017-0.788,0.034-1.182,0.042
	c-0.742,0.014-1.483,0.029-2.224,0.044c-3.238,0.064-6.475,0.128-9.711,0.192c-1.481,0.028-2.963,0.079-4.445,0.083
	c-2.313,0.005-4.63,0.011-6.945,0.016c-5.29,0.012-10.581,0.024-15.87,0.038c-10.27,0.027-20.54,0.049-30.81,0.073
	c-7.354,0.018-14.708,0.126-22.06,0.205C98.239,9.323,87.159,9.443,76.08,9.564c-2.221,0.025-4.443,0.115-6.662,0.179
	c-6.29,0.178-12.58,0.354-18.869,0.531c-6.175,0.175-12.35,0.349-18.525,0.522c-0.572,0.016-1.143,0.033-1.714,0.049
	c1.664-0.09,3.329-0.18,4.994-0.265c5.813-0.297,11.626-0.596,17.439-0.893c2.03-0.103,4.059-0.207,6.09-0.31
	c1.047-0.054,2.096-0.083,3.144-0.124c6.045-0.232,12.089-0.464,18.133-0.696c1.181-0.045,2.363-0.109,3.546-0.134
	c1.702-0.036,3.405-0.071,5.107-0.107c6.23-0.13,12.462-0.26,18.692-0.389c1.371-0.029,2.742-0.057,4.113-0.086
	c0.361-0.007,0.722-0.005,1.083-0.007c0.963-0.005,1.925-0.011,2.888-0.018c6.243-0.038,12.486-0.074,18.728-0.112
	c2.876-0.019,5.753-0.042,8.63-0.031c9.28,0.036,18.562,0.054,27.843,0.117C180.195,7.854,189.651,7.9,199.107,7.993"/>
<path fill="#C52447" d="M20.344,16.906c0.002-0.204-0.208-0.377-0.461-0.38c-0.252-0.003-0.466,0.165-0.468,0.369
	c-0.003,0.203,0.208,0.376,0.46,0.378C20.128,17.276,20.342,17.108,20.344,16.906"/>
</svg>
