<svg xmlns="http://www.w3.org/2000/svg" viewBox="0 0 251 496" width="251" height="496">
	<defs>
		<clipPath clipPathUnits="userSpaceOnUse" id="cp1">
			<path d="M0 0L251 0L251 496L0 496Z" />
		</clipPath>
	</defs>
	<style>
		tspan { white-space:pre }
		.shp0 { fill: #2c2e35 } 
	</style>
	<g id="Page 1" clip-path="url(#cp1)">
		<path id="Path 1" class="shp0" d="M8 264.17L62.37 264.17L62.37 488C62.37 492.42 65.95 496 70.37 496L162.55 496C166.98 496 170.55 492.42 170.55 488L170.55 265.23L233.05 265.23C237.12 265.23 240.54 262.17 241.01 258.14L250.5 175.73C250.76 173.47 250.04 171.2 248.52 169.49C247.01 167.8 244.83 166.82 242.55 166.82L170.55 166.82L170.55 115.16C170.55 99.59 178.95 91.7 195.48 91.7L242.55 91.7C246.97 91.7 250.55 88.12 250.55 83.7L250.55 8.06C250.55 3.64 246.97 0.06 242.55 0.06L177.68 0.06C177.22 0.04 176.2 0 174.71 0C163.45 0 124.33 2.21 93.42 30.64C59.18 62.15 63.94 99.88 65.08 106.41L65.08 166.82L8 166.82C3.58 166.82 0 170.4 0 174.82L0 256.17C0 260.59 3.58 264.17 8 264.17Z" />
	</g>
</svg>