<?xml version="1.0" encoding="utf-8"?>
<!-- Generator: Adobe Illustrator 22.0.0, SVG Export Plug-In . SVG Version: 6.00 Build 0)  -->
<svg version="1.1" baseProfile="tiny" id="Layer_1" xmlns="http://www.w3.org/2000/svg" xmlns:xlink="http://www.w3.org/1999/xlink"
	 x="0px" y="0px" viewBox="0 0 136.061 105.534" xml:space="preserve" >
<g>
	<path fill="#C92347" d="M3.354,64.362c0-16.832,4.011-30.129,12.035-39.891c8.021-9.763,19.72-16.159,35.094-19.188v17.505
		C39.037,26.38,31.35,32.55,27.423,41.303c-2.02,4.603-2.862,9.371-2.525,14.307h26.426v44.268H3.354V64.362z M83.136,64.362
		c0-17.055,4.124-30.408,12.372-40.06c8.248-9.649,19.833-15.99,34.757-19.02v17.505c-11.335,3.479-18.965,9.763-22.891,18.852
		c-2.246,4.826-3.143,9.484-2.693,13.971h26.426v44.268H83.136V64.362z"/>
</g>
</svg>
