<?xml version="1.0" encoding="utf-8"?>
<!-- Generator: Adobe Illustrator 22.0.0, SVG Export Plug-In . SVG Version: 6.00 Build 0)  -->
<svg version="1.1" baseProfile="tiny" id="Layer_1" xmlns="http://www.w3.org/2000/svg" xmlns:xlink="http://www.w3.org/1999/xlink"
	 x="0px" y="0px" viewBox="0 0 136.061 105.534" xml:space="preserve">
<g>
	<path fill="#C92347" d="M133.045,40.798c0,16.832-4.011,30.129-12.035,39.891c-8.021,9.763-19.72,16.159-35.094,19.188V82.373
		c11.445-3.593,19.133-9.763,23.059-18.515c2.02-4.603,2.862-9.371,2.525-14.307H85.075V5.283h47.971V40.798z M53.263,40.798
		c0,17.055-4.124,30.408-12.372,40.06c-8.248,9.649-19.833,15.99-34.757,19.02V82.373c11.335-3.479,18.965-9.763,22.891-18.852
		c2.246-4.826,3.143-9.484,2.693-13.971H5.292V5.283h47.971V40.798z"/>
</g>
</svg>
