<?xml version="1.0" encoding="utf-8"?>
<!-- Generator: Adobe Illustrator 22.0.0, SVG Export Plug-In . SVG Version: 6.00 Build 0)  -->
<svg version="1.1" baseProfile="tiny" id="Layer_1" xmlns="http://www.w3.org/2000/svg" xmlns:xlink="http://www.w3.org/1999/xlink"
	 x="0px" y="0px" viewBox="0 0 20 20" xml:space="preserve" fill="#FFF">
<g>
	<path d="M2.253,15.917c-0.407,0-0.61-0.203-0.61-0.609V9.573c0-0.528,0.162-0.955,0.488-1.281L6.34,4.51
		c0.244-0.284,0.528-0.427,0.854-0.427c0.405,0,0.609,0.204,0.609,0.61v10.615c0,0.406-0.204,0.609-0.609,0.609H2.253z
		 M12.806,15.917c-0.407,0-0.609-0.203-0.609-0.609V9.573c0-0.528,0.161-0.955,0.487-1.281l4.148-3.782
		c0.284-0.284,0.589-0.427,0.915-0.427c0.406,0,0.609,0.204,0.609,0.61v10.615c0,0.406-0.203,0.609-0.609,0.609H12.806z"/>
</g>
</svg>
