<svg xmlns="http://www.w3.org/2000/svg" viewBox="0 0 480 480" width="480" height="480">
	<defs>
		<clipPath clipPathUnits="userSpaceOnUse" id="cp1">
			<path d="M0 0L480 0L480 480L0 480Z" />
		</clipPath>
	</defs>
	<style>
		tspan { white-space:pre }
		.shp0 { fill: #2c2e35 } 
	</style>
	<g id="Page 1" clip-path="url(#cp1)">
		<path id="Path 1" fill-rule="evenodd" class="shp0" d="M61.63 0.04L418.4 0.04C452.29 0.04 480 27.76 480 61.65L480 418.41C480 452.3 452.29 480 418.4 480L61.63 480C27.74 480 0 452.3 0 418.41L0 61.65C0 27.76 27.74 0.04 61.63 0.04ZM425.74 203.01L383.5 203.01C387.51 216.09 389.68 229.88 389.68 244.23C389.68 324.03 322.85 388.76 240.45 388.76C158.07 388.76 91.24 324.03 91.24 244.23C91.24 229.88 93.44 216.09 97.42 203.01L53.36 203.01L53.36 405.78C53.36 416.28 61.94 424.82 72.42 424.82L406.68 424.82C417.18 424.82 425.74 416.28 425.74 405.78L425.74 203.01ZM349.67 53.34C337.77 53.34 328.06 63.09 328.06 74.98L328.06 126.69C328.06 138.59 337.77 148.31 349.67 148.31L403.92 148.31C415.8 148.31 425.53 138.59 425.53 126.69L425.53 74.98C425.53 63.09 415.8 53.34 403.92 53.34L349.67 53.34ZM240.45 145.59C187.24 145.59 144.07 187.39 144.07 239.01C144.07 290.57 187.24 332.41 240.45 332.41C293.7 332.41 336.87 290.57 336.87 239.01C336.87 187.39 293.7 145.59 240.45 145.59Z" />
	</g>
</svg>