<svg xmlns="http://www.w3.org/2000/svg" viewBox="0 0 721 722" width="721" height="722">
	<defs>
		<clipPath clipPathUnits="userSpaceOnUse" id="cp1">
			<path d="M0 0L721 0L721 722L0 722Z" />
		</clipPath>
	</defs>
	<style>
		tspan { white-space:pre }
		.shp0 { fill: #2c2e35 } 
	</style>
	<g id="Page 1" clip-path="url(#cp1)">
		<path id="Path 1" fill-rule="evenodd" class="shp0" d="M715.2 715.6C711.04 719.92 705.44 722 700 722C694.56 722 688.96 719.76 684.8 715.6L509.44 540.24C455.36 587.28 384.8 615.76 307.68 615.76C138.08 615.76 0 477.68 0 308.08C0 138.48 137.92 0.4 307.68 0.4C477.28 0.4 615.36 138.32 615.36 308.08C615.36 385.2 586.88 455.76 539.84 509.84L715.2 685.2C723.52 693.52 723.52 707.28 715.2 715.6ZM307.52 572.72C453.44 572.72 572 453.84 572 308.08C572 162.32 453.44 43.6 307.52 43.6C161.76 43.6 43.04 162.16 43.04 308.08C43.04 454 161.76 572.72 307.52 572.72Z" />
	</g>
</svg>