<?xml version="1.0" encoding="utf-8"?>
<!-- Generator: Adobe Illustrator 16.0.0, SVG Export Plug-In . SVG Version: 6.00 Build 0)  -->
<!DOCTYPE svg PUBLIC "-//W3C//DTD SVG 1.1//EN" "http://www.w3.org/Graphics/SVG/1.1/DTD/svg11.dtd">
<svg version="1.1" id="Layer_1" xmlns="http://www.w3.org/2000/svg" xmlns:xlink="http://www.w3.org/1999/xlink" x="0px" y="0px"
	 width="512px" height="319.993px" viewBox="0 0 512 319.993" enable-background="new 0 0 512 319.993" xml:space="preserve">
<path fill="#FFFFFF" d="M256,319.993c-13.099,0-30.016-7.253-37.867-12.416c-9.514-6.251-57.258-42.154-96.981-75.413
	c-6.613-5.547-16.448-15.829-25.963-25.771c-7.061-7.36-13.461-14.123-16.768-16.918c-4.501-3.797-5.056-10.538-1.258-15.04
	c3.775-4.522,10.496-5.099,15.04-1.259c3.627,3.072,10.688,10.39,18.41,18.454c8.704,9.088,18.56,19.37,24.256,24.17
	c40.555,33.964,87.51,68.992,94.998,73.92c6.25,4.139,19.029,8.939,26.133,8.939c9.984,0,10.901-2.561,11.307-3.627
	c1.215-3.35,4.011-5.866,7.488-6.72c3.434-0.832,7.104,0.085,9.749,2.475c4.245,3.883,8.981,3.136,12.245,1.898
	c6.763-2.624,11.947-9.344,12.587-16.342c0.384-4.053,3.029-7.552,6.827-8.98c3.797-1.408,8.085-0.598,11.071,2.176
	c2.667,2.475,9.792,3.071,16.619-0.384c2.688-1.345,8.896-5.228,8.171-12.011c-0.448-4.139,1.557-8.171,5.141-10.305
	c3.563-2.133,8.064-1.983,11.521,0.385c3.136,2.197,8.917,1.045,13.141-2.582c2.881-2.453,7.126-7.808,3.179-16.021
	c-8-16.64-43.563-45.396-74.922-70.762c-17.345-14.016-33.813-27.35-46.017-38.805c-3.114,1.258-5.46,2.303-7.467,3.199
	c-5.547,2.496-9.237,4.032-16.021,5.077c-16.427,21.803-38.486,29.441-62.657,21.462c-9.642-3.179-16.128-10.006-18.325-19.221
	c-5.119-21.654,14.699-51.179,29.291-65.771c38.336-38.357,65.174-52.757,114.09-30.891c41.984,18.795,84.054,33.494,84.48,33.643
	c5.567,1.941,8.49,8.022,6.57,13.589c-1.941,5.568-7.979,8.512-13.589,6.571c-0.427-0.149-43.35-15.147-86.188-34.304
	c-37.76-16.874-55.637-8.192-90.304,26.496c-14.57,14.57-25.813,36.373-23.573,45.739c0.32,1.365,0.917,2.794,4.246,3.904
	c10.431,3.498,26.047,5.418,41.13-17.131c1.771-2.645,4.629-4.352,7.808-4.672c7.19-0.725,8.982-1.536,14.315-3.925
	c3.499-1.557,7.936-3.563,15.125-6.166c3.861-1.386,8.234-0.448,11.157,2.496c11.67,11.67,29.974,26.475,49.344,42.134
	c34.731,28.096,70.678,57.173,80.726,78.122c7.083,14.699,3.712,30.998-8.533,41.473c-7.232,6.208-15.979,9.216-24.47,8.768
	c-3.071,7.7-9.258,14.293-17.813,18.603c-8.747,4.395-18.368,5.653-26.773,3.861c-4.523,9.174-12.502,16.747-22.208,20.502
	c-8.214,3.199-16.747,3.178-24.256,0.256C274.603,317.582,266.518,319.993,256,319.993"/>
<path fill="#FFFFFF" d="M213.333,63.993h-96c-5.888,0-10.667-4.779-10.667-10.667s4.779-10.666,10.667-10.666h96
	c5.888,0,10.667,4.778,10.667,10.666S219.222,63.993,213.333,63.993"/>
<path fill="#FFFFFF" d="M395.499,234.275c-3.435,0-6.806-1.663-8.875-4.714c-3.285-4.886-1.984-11.521,2.901-14.807l31.189-20.948
	c4.885-3.328,11.498-1.984,14.805,2.901c3.286,4.885,1.984,11.52-2.9,14.805l-31.189,20.95
	C399.595,233.7,397.525,234.275,395.499,234.275"/>
<path fill="#FFFFFF" d="M362.667,266.66c-2.305,0-4.651-0.747-6.593-2.283c-11.242-8.874-59.604-59.285-65.088-65.003
	c-4.074-4.245-3.946-11.008,0.32-15.082c4.245-4.096,11.008-3.947,15.083,0.32c21.12,22.016,55.274,56.98,62.912,62.997
	c4.629,3.647,5.418,10.368,1.771,14.976C368.938,265.252,365.803,266.66,362.667,266.66"/>
<path fill="#FFFFFF" d="M320,287.993c-2.325,0-4.693-0.768-6.656-2.325c-15.829-12.672-54.144-54.037-54.527-54.442
	c-3.989-4.331-3.691-11.094,0.64-15.083c4.352-3.968,11.072-3.713,15.083,0.64c7.253,7.894,39.359,42.006,52.139,52.225
	c4.586,3.669,5.333,10.389,1.664,14.997C326.229,286.606,323.114,287.993,320,287.993"/>
<path fill="#FFFFFF" d="M277.333,309.326c-2.432,0-4.863-0.832-6.869-2.517c-15.723-13.27-45.504-44.843-54.251-54.208
	c-4.01-4.31-3.797-11.051,0.513-15.083c4.287-4.032,11.05-3.798,15.082,0.512c6.08,6.507,37.206,39.638,52.416,52.459
	c4.502,3.797,5.078,10.518,1.28,15.04C283.392,308.025,280.362,309.326,277.333,309.326"/>
<path fill="#FFFFFF" d="M74.667,213.326h-64C4.778,213.326,0,208.548,0,202.66v-192C0,7.716,1.215,4.9,3.35,2.894
	c2.133-2.026,4.928-3.029,7.957-2.88c21.973,1.302,95.083,6.912,113.365,24.235c2.369,2.219,3.563,5.419,3.286,8.661
	c-4.843,55.467-41.6,168.277-43.158,173.057C83.371,210.361,79.274,213.326,74.667,213.326 M21.333,191.993h45.546
	c7.936-25.045,33.515-108.053,39.168-154.773c-13.44-6.528-50.431-12.416-84.714-15.125V191.993z"/>
<path fill="#FFFFFF" d="M501.334,234.66h-64c-4.801,0-9.003-3.2-10.283-7.83c-7.937-28.757-49.216-146.645-62.4-167.872
	c-1.6-2.602-2.026-5.738-1.173-8.661c0.854-2.923,2.923-5.333,5.696-6.635c1.94-0.896,48.405-22.335,132.16-22.335
	c5.888,0,10.666,4.757,10.666,10.666v192C512,229.881,507.222,234.66,501.334,234.66 M445.313,213.326h45.354V42.787
	c-50.751,1.195-85.717,10.689-101.994,16.214C405.334,94.5,435.2,180.388,445.313,213.326"/>
</svg>
