<svg xmlns="http://www.w3.org/2000/svg" viewBox="0 0 496 349" width="496" height="349">
	<defs>
		<clipPath clipPathUnits="userSpaceOnUse" id="cp1">
			<path d="M0 0L496 0L496 349L0 349Z" />
		</clipPath>
	</defs>
	<style>
		tspan { white-space:pre }
		.shp0 { fill: #2c2e35 } 
	</style>
	<g id="Page 1" clip-path="url(#cp1)">
		<path id="Path 1" fill-rule="evenodd" class="shp0" d="M496 131.54L496 217.41C496 271.85 487.41 303.3 467.29 322.56C447.66 341.34 417.33 349 362.58 349L133.41 349C20.63 349 0 304.69 0 217.41L0 131.54C0 86.49 0 53.93 17.39 31.84C35.23 9.18 68.84 -0.06 133.41 -0.06L362.58 -0.06C425.71 -0.06 458.77 8.62 476.66 29.9C494.66 51.28 496 84.02 496 131.54ZM327.02 172.12C327.02 166.16 323.69 160.7 318.4 157.95L214.34 103.91C209.38 101.34 203.44 101.53 198.66 104.44C193.88 107.34 190.96 112.52 190.96 118.11L190.96 226.53C190.96 232.12 193.88 237.32 198.67 240.22C201.21 241.76 204.09 242.53 206.96 242.53C209.5 242.53 212.05 241.93 214.38 240.71L318.44 186.33C323.72 183.56 327.03 178.09 327.02 172.12Z" />
	</g>
</svg>